<?xml version="1.0" standalone="no"?>
<!DOCTYPE svg PUBLIC "-//W3C//DTD SVG 20010904//EN" "http://www.w3.org/TR/2001/REC-SVG-20010904/DTD/svg10.dtd">
<svg version="1.0" xmlns="http://www.w3.org/2000/svg"
    width="200.000000pt" height="200.000000pt" viewBox="0 0 460.000000 460.000000"
    preserveAspectRatio="xMidYMid meet">

    <g transform="translate(0.000000,460.000000) scale(0.100000,-0.100000)"
        fill="#000000" stroke="none">
        <path
            d="M2075 4338 c-406 -41 -838 -235 -1145 -515 -422 -385 -653 -877 -677
-1443 -30 -717 318 -1394 922 -1793 604 -399 1398 -446 2038 -120 447 227 781
580 970 1024 119 281 161 489 161 809 0 230 -11 319 -60 515 -122 481 -435
918 -856 1196 -395 260 -873 376 -1353 327z m395 -1659 c75 -35 116 -72 147
-133 49 -98 39 -232 -24 -307 l-25 -30 40 -92 c57 -129 59 -143 32 -172 -13
-14 -43 -32 -67 -41 -42 -16 -45 -16 -70 2 -15 12 -41 56 -66 117 l-41 97 -88
0 -88 0 0 -80 c0 -95 -12 -127 -52 -136 -46 -10 -116 4 -128 26 -6 11 -10 157
-10 378 0 329 1 360 18 374 29 26 42 28 207 25 148 -2 164 -4 215 -28z m720
10 c115 -51 174 -200 126 -314 -17 -39 -16 -41 8 -90 14 -27 29 -71 32 -96 14
-106 -55 -225 -156 -268 -48 -21 -64 -22 -245 -19 -173 3 -195 5 -214 22 -21
19 -21 26 -21 375 0 384 1 393 53 404 12 3 103 4 202 3 138 -1 188 -5 215 -17z
m-1782 -6 c12 -10 91 -112 176 -227 l155 -209 3 206 c4 244 5 247 98 247 101
0 95 25 98 -388 3 -418 7 -402 -89 -410 -44 -3 -59 0 -80 16 -14 11 -95 113
-180 226 l-154 205 -5 -204 c-6 -241 -5 -240 -100 -240 -99 0 -95 -18 -98 368
-3 348 -1 387 24 412 22 22 125 20 152 -2z" />
        <path
            d="M2220 2415 l0 -95 89 0 c73 0 93 3 114 20 51 40 43 126 -14 155 -18
10 -58 15 -109 15 l-80 0 0 -95z" />
        <path
            d="M2910 2305 l0 -205 106 0 c133 0 144 6 144 70 0 57 -14 70 -79 70
-56 0 -81 26 -81 84 0 52 14 66 72 73 55 7 68 18 68 57 0 50 -13 56 -127 56
l-103 0 0 -205z" />
    </g>
</svg>